<svg width="200" height="200" viewBox="0 0 200 200" xmlns="http://www.w3.org/2000/svg">
  <!-- 背景圆形 -->
  <defs>
    <linearGradient id="bgGradient" x1="0%" y1="0%" x2="100%" y2="100%">
      <stop offset="0%" style="stop-color:#4A90E2;stop-opacity:1" />
      <stop offset="100%" style="stop-color:#357ABD;stop-opacity:1" />
    </linearGradient>
    
    <linearGradient id="iconGradient" x1="0%" y1="0%" x2="100%" y2="100%">
      <stop offset="0%" style="stop-color:#FFFFFF;stop-opacity:1" />
      <stop offset="100%" style="stop-color:#F0F8FF;stop-opacity:1" />
    </linearGradient>
    
    <!-- 智能连接线动画 -->
    <filter id="glow">
      <feGaussianBlur stdDeviation="2" result="coloredBlur"/>
      <feMerge> 
        <feMergeNode in="coloredBlur"/>
        <feMergeNode in="SourceGraphic"/>
      </feMerge>
    </filter>
  </defs>
  
  <!-- 主背景圆 -->
  <circle cx="100" cy="100" r="90" fill="url(#bgGradient)" stroke="#2C5AA0" stroke-width="2"/>
  
  <!-- PPT幻灯片图标 -->
  <rect x="60" y="50" width="80" height="60" rx="3" fill="url(#iconGradient)" stroke="#FFFFFF" stroke-width="2"/>
  
  <!-- 幻灯片内容线条 -->
  <line x1="70" y1="65" x2="130" y2="65" stroke="#4A90E2" stroke-width="2"/>
  <line x1="70" y1="75" x2="120" y2="75" stroke="#4A90E2" stroke-width="1.5"/>
  <line x1="70" y1="85" x2="110" y2="85" stroke="#4A90E2" stroke-width="1.5"/>
  <line x1="70" y1="95" x2="115" y2="95" stroke="#4A90E2" stroke-width="1.5"/>
  
  <!-- 智能连接线（双向溯源概念） -->
  <path d="M 140 80 Q 160 60 180 80" stroke="#FFD700" stroke-width="2" fill="none" filter="url(#glow)"/>
  <path d="M 140 80 Q 160 100 180 80" stroke="#FFD700" stroke-width="2" fill="none" filter="url(#glow)"/>
  
  <!-- 智能节点 -->
  <circle cx="180" cy="80" r="8" fill="#FFD700" stroke="#FFFFFF" stroke-width="1"/>
  
  <!-- 文档图标（代表原文） -->
  <rect x="20" y="70" width="25" height="30" rx="2" fill="#E8F4FD" stroke="#4A90E2" stroke-width="1.5"/>
  <line x1="25" y1="80" x2="40" y2="80" stroke="#4A90E2" stroke-width="1"/>
  <line x1="25" y1="85" x2="38" y2="85" stroke="#4A90E2" stroke-width="1"/>
  <line x1="25" y1="90" x2="35" y2="90" stroke="#4A90E2" stroke-width="1"/>
  <line x1="25" y1="95" x2="37" y2="95" stroke="#4A90E2" stroke-width="1"/>
  
  <!-- 连接线到文档 -->
  <path d="M 45 85 Q 55 75 60 80" stroke="#FFD700" stroke-width="2" fill="none" filter="url(#glow)"/>
  
  <!-- 智能大脑图标 -->
  <g transform="translate(160, 120)">
    <path d="M 0 -8 C 3 -12, 8 -12, 8 -8 C 8 -4, 4 0, 0 0 C -4 0, -8 -4, -8 -8 C -8 -12, -3 -12, 0 -8 Z" 
          fill="#FFD700" stroke="#FFFFFF" stroke-width="0.5"/>
    <circle cx="-2" cy="-5" r="1" fill="#FFFFFF"/>
    <circle cx="2" cy="-5" r="1" fill="#FFFFFF"/>
    <path d="M -1 0 Q 0 -2, 1 0" stroke="#FFFFFF" stroke-width="1" fill="none"/>
  </g>
  
  <!-- 高亮效果 -->
  <circle cx="100" cy="100" r="85" fill="none" stroke="#FFFFFF" stroke-width="1" opacity="0.3"/>
  
  <!-- 品牌文字 -->
  <text x="100" y="170" text-anchor="middle" font-family="Arial, sans-serif" font-size="14" font-weight="bold" fill="#2C5AA0">
    SmartDrawPPT
  </text>
</svg>